<svg id="visual" viewBox="0 0 2700 300" width="2700" height="300" xmlns="http://www.w3.org/2000/svg" xmlns:xlink="http://www.w3.org/1999/xlink" version="1.1"><rect x="0" y="0" width="2700" height="300" fill="#6D5B87"></rect><path d="M0 190L64.3 191.3C128.7 192.7 257.3 195.3 385.8 196.8C514.3 198.3 642.7 198.7 771.2 194.8C899.7 191 1028.3 183 1157 185.2C1285.7 187.3 1414.3 199.7 1543 206.8C1671.7 214 1800.3 216 1928.8 209.7C2057.3 203.3 2185.7 188.7 2314.2 182.7C2442.7 176.7 2571.3 179.3 2635.7 180.7L2700 182L2700 301L2635.7 301C2571.3 301 2442.7 301 2314.2 301C2185.7 301 2057.3 301 1928.8 301C1800.3 301 1671.7 301 1543 301C1414.3 301 1285.7 301 1157 301C1028.3 301 899.7 301 771.2 301C642.7 301 514.3 301 385.8 301C257.3 301 128.7 301 64.3 301L0 301Z" fill="#6d5b87"></path><path d="M0 201L64.3 204.3C128.7 207.7 257.3 214.3 385.8 217C514.3 219.7 642.7 218.3 771.2 218.8C899.7 219.3 1028.3 221.7 1157 218.2C1285.7 214.7 1414.3 205.3 1543 208C1671.7 210.7 1800.3 225.3 1928.8 229C2057.3 232.7 2185.7 225.3 2314.2 220C2442.7 214.7 2571.3 211.3 2635.7 209.7L2700 208L2700 301L2635.7 301C2571.3 301 2442.7 301 2314.2 301C2185.7 301 2057.3 301 1928.8 301C1800.3 301 1671.7 301 1543 301C1414.3 301 1285.7 301 1157 301C1028.3 301 899.7 301 771.2 301C642.7 301 514.3 301 385.8 301C257.3 301 128.7 301 64.3 301L0 301Z" fill="#635177"></path><path d="M0 235L64.3 233.8C128.7 232.7 257.3 230.3 385.8 227.8C514.3 225.3 642.7 222.7 771.2 225.2C899.7 227.7 1028.3 235.3 1157 238C1285.7 240.7 1414.3 238.3 1543 235.3C1671.7 232.3 1800.3 228.7 1928.8 227.2C2057.3 225.7 2185.7 226.3 2314.2 230.5C2442.7 234.7 2571.3 242.3 2635.7 246.2L2700 250L2700 301L2635.7 301C2571.3 301 2442.7 301 2314.2 301C2185.7 301 2057.3 301 1928.8 301C1800.3 301 1671.7 301 1543 301C1414.3 301 1285.7 301 1157 301C1028.3 301 899.7 301 771.2 301C642.7 301 514.3 301 385.8 301C257.3 301 128.7 301 64.3 301L0 301Z" fill="#594868"></path><path d="M0 255L64.3 253.2C128.7 251.3 257.3 247.7 385.8 249.5C514.3 251.3 642.7 258.7 771.2 258.8C899.7 259 1028.3 252 1157 252.2C1285.7 252.3 1414.3 259.7 1543 263C1671.7 266.3 1800.3 265.7 1928.8 263.3C2057.3 261 2185.7 257 2314.2 255C2442.7 253 2571.3 253 2635.7 253L2700 253L2700 301L2635.7 301C2571.3 301 2442.7 301 2314.2 301C2185.7 301 2057.3 301 1928.8 301C1800.3 301 1671.7 301 1543 301C1414.3 301 1285.7 301 1157 301C1028.3 301 899.7 301 771.2 301C642.7 301 514.3 301 385.8 301C257.3 301 128.7 301 64.3 301L0 301Z" fill="#4f3f59"></path><path d="M0 269L64.3 270.5C128.7 272 257.3 275 385.8 274.8C514.3 274.7 642.7 271.3 771.2 271.7C899.7 272 1028.3 276 1157 275.3C1285.7 274.7 1414.3 269.3 1543 267.8C1671.7 266.3 1800.3 268.7 1928.8 270.3C2057.3 272 2185.7 273 2314.2 272.2C2442.7 271.3 2571.3 268.7 2635.7 267.3L2700 266L2700 301L2635.7 301C2571.3 301 2442.7 301 2314.2 301C2185.7 301 2057.3 301 1928.8 301C1800.3 301 1671.7 301 1543 301C1414.3 301 1285.7 301 1157 301C1028.3 301 899.7 301 771.2 301C642.7 301 514.3 301 385.8 301C257.3 301 128.7 301 64.3 301L0 301Z" fill="#44364b"></path></svg>