<svg id="visual" viewBox="0 0 2700 300" width="2700" height="300" xmlns="http://www.w3.org/2000/svg" xmlns:xlink="http://www.w3.org/1999/xlink" version="1.1"><rect x="0" y="0" width="2700" height="300" fill="#EC745C"></rect><path d="M0 195L64.3 198C128.7 201 257.3 207 385.8 205.3C514.3 203.7 642.7 194.3 771.2 194.5C899.7 194.7 1028.3 204.3 1157 202.8C1285.7 201.3 1414.3 188.7 1543 186C1671.7 183.3 1800.3 190.7 1928.8 194.8C2057.3 199 2185.7 200 2314.2 199.3C2442.7 198.7 2571.3 196.3 2635.7 195.2L2700 194L2700 301L2635.7 301C2571.3 301 2442.7 301 2314.2 301C2185.7 301 2057.3 301 1928.8 301C1800.3 301 1671.7 301 1543 301C1414.3 301 1285.7 301 1157 301C1028.3 301 899.7 301 771.2 301C642.7 301 514.3 301 385.8 301C257.3 301 128.7 301 64.3 301L0 301Z" fill="#ec745c"></path><path d="M0 218L64.3 221.3C128.7 224.7 257.3 231.3 385.8 228.3C514.3 225.3 642.7 212.7 771.2 208.7C899.7 204.7 1028.3 209.3 1157 210.8C1285.7 212.3 1414.3 210.7 1543 212C1671.7 213.3 1800.3 217.7 1928.8 222C2057.3 226.3 2185.7 230.7 2314.2 227.5C2442.7 224.3 2571.3 213.7 2635.7 208.3L2700 203L2700 301L2635.7 301C2571.3 301 2442.7 301 2314.2 301C2185.7 301 2057.3 301 1928.8 301C1800.3 301 1671.7 301 1543 301C1414.3 301 1285.7 301 1157 301C1028.3 301 899.7 301 771.2 301C642.7 301 514.3 301 385.8 301C257.3 301 128.7 301 64.3 301L0 301Z" fill="#ef8366"></path><path d="M0 224L64.3 228.2C128.7 232.3 257.3 240.7 385.8 244.2C514.3 247.7 642.7 246.3 771.2 247.2C899.7 248 1028.3 251 1157 251.2C1285.7 251.3 1414.3 248.7 1543 243.3C1671.7 238 1800.3 230 1928.8 228.2C2057.3 226.3 2185.7 230.7 2314.2 232.7C2442.7 234.7 2571.3 234.3 2635.7 234.2L2700 234L2700 301L2635.7 301C2571.3 301 2442.7 301 2314.2 301C2185.7 301 2057.3 301 1928.8 301C1800.3 301 1671.7 301 1543 301C1414.3 301 1285.7 301 1157 301C1028.3 301 899.7 301 771.2 301C642.7 301 514.3 301 385.8 301C257.3 301 128.7 301 64.3 301L0 301Z" fill="#f19272"></path><path d="M0 269L64.3 267.2C128.7 265.3 257.3 261.7 385.8 260.2C514.3 258.7 642.7 259.3 771.2 257.7C899.7 256 1028.3 252 1157 252.2C1285.7 252.3 1414.3 256.7 1543 258.8C1671.7 261 1800.3 261 1928.8 261.2C2057.3 261.3 2185.7 261.7 2314.2 261C2442.7 260.3 2571.3 258.7 2635.7 257.8L2700 257L2700 301L2635.7 301C2571.3 301 2442.7 301 2314.2 301C2185.7 301 2057.3 301 1928.8 301C1800.3 301 1671.7 301 1543 301C1414.3 301 1285.7 301 1157 301C1028.3 301 899.7 301 771.2 301C642.7 301 514.3 301 385.8 301C257.3 301 128.7 301 64.3 301L0 301Z" fill="#f3a07e"></path><path d="M0 274L64.3 274.8C128.7 275.7 257.3 277.3 385.8 278.7C514.3 280 642.7 281 771.2 279.7C899.7 278.3 1028.3 274.7 1157 273.7C1285.7 272.7 1414.3 274.3 1543 275.7C1671.7 277 1800.3 278 1928.8 275.8C2057.3 273.7 2185.7 268.3 2314.2 266.3C2442.7 264.3 2571.3 265.7 2635.7 266.3L2700 267L2700 301L2635.7 301C2571.3 301 2442.7 301 2314.2 301C2185.7 301 2057.3 301 1928.8 301C1800.3 301 1671.7 301 1543 301C1414.3 301 1285.7 301 1157 301C1028.3 301 899.7 301 771.2 301C642.7 301 514.3 301 385.8 301C257.3 301 128.7 301 64.3 301L0 301Z" fill="#f5ad8c"></path></svg>