<svg id="visual" viewBox="0 0 2700 300" width="2700" height="300" xmlns="http://www.w3.org/2000/svg" xmlns:xlink="http://www.w3.org/1999/xlink" version="1.1"><rect x="0" y="0" width="2700" height="300" fill="#C6808C"></rect><path d="M0 203L64.3 205C128.7 207 257.3 211 385.8 207C514.3 203 642.7 191 771.2 186.7C899.7 182.3 1028.3 185.7 1157 191.3C1285.7 197 1414.3 205 1543 209.5C1671.7 214 1800.3 215 1928.8 211.7C2057.3 208.3 2185.7 200.7 2314.2 198.3C2442.7 196 2571.3 199 2635.7 200.5L2700 202L2700 301L2635.7 301C2571.3 301 2442.7 301 2314.2 301C2185.7 301 2057.3 301 1928.8 301C1800.3 301 1671.7 301 1543 301C1414.3 301 1285.7 301 1157 301C1028.3 301 899.7 301 771.2 301C642.7 301 514.3 301 385.8 301C257.3 301 128.7 301 64.3 301L0 301Z" fill="#c6808c"></path><path d="M0 225L64.3 221.3C128.7 217.7 257.3 210.3 385.8 208.5C514.3 206.7 642.7 210.3 771.2 213.5C899.7 216.7 1028.3 219.3 1157 219.5C1285.7 219.7 1414.3 217.3 1543 214.5C1671.7 211.7 1800.3 208.3 1928.8 207.7C2057.3 207 2185.7 209 2314.2 210.2C2442.7 211.3 2571.3 211.7 2635.7 211.8L2700 212L2700 301L2635.7 301C2571.3 301 2442.7 301 2314.2 301C2185.7 301 2057.3 301 1928.8 301C1800.3 301 1671.7 301 1543 301C1414.3 301 1285.7 301 1157 301C1028.3 301 899.7 301 771.2 301C642.7 301 514.3 301 385.8 301C257.3 301 128.7 301 64.3 301L0 301Z" fill="#b4758d"></path><path d="M0 252L64.3 247.7C128.7 243.3 257.3 234.7 385.8 231.5C514.3 228.3 642.7 230.7 771.2 235.3C899.7 240 1028.3 247 1157 247.7C1285.7 248.3 1414.3 242.7 1543 237.7C1671.7 232.7 1800.3 228.3 1928.8 230.7C2057.3 233 2185.7 242 2314.2 241.2C2442.7 240.3 2571.3 229.7 2635.7 224.3L2700 219L2700 301L2635.7 301C2571.3 301 2442.7 301 2314.2 301C2185.7 301 2057.3 301 1928.8 301C1800.3 301 1671.7 301 1543 301C1414.3 301 1285.7 301 1157 301C1028.3 301 899.7 301 771.2 301C642.7 301 514.3 301 385.8 301C257.3 301 128.7 301 64.3 301L0 301Z" fill="#9f6b8d"></path><path d="M0 241L64.3 245.3C128.7 249.7 257.3 258.3 385.8 258.5C514.3 258.7 642.7 250.3 771.2 249C899.7 247.7 1028.3 253.3 1157 257.3C1285.7 261.3 1414.3 263.7 1543 262.7C1671.7 261.7 1800.3 257.3 1928.8 254C2057.3 250.7 2185.7 248.3 2314.2 246.7C2442.7 245 2571.3 244 2635.7 243.5L2700 243L2700 301L2635.7 301C2571.3 301 2442.7 301 2314.2 301C2185.7 301 2057.3 301 1928.8 301C1800.3 301 1671.7 301 1543 301C1414.3 301 1285.7 301 1157 301C1028.3 301 899.7 301 771.2 301C642.7 301 514.3 301 385.8 301C257.3 301 128.7 301 64.3 301L0 301Z" fill="#87628b"></path><path d="M0 272L64.3 270.8C128.7 269.7 257.3 267.3 385.8 266.7C514.3 266 642.7 267 771.2 267.7C899.7 268.3 1028.3 268.7 1157 270.2C1285.7 271.7 1414.3 274.3 1543 273.7C1671.7 273 1800.3 269 1928.8 269.3C2057.3 269.7 2185.7 274.3 2314.2 277.3C2442.7 280.3 2571.3 281.7 2635.7 282.3L2700 283L2700 301L2635.7 301C2571.3 301 2442.7 301 2314.2 301C2185.7 301 2057.3 301 1928.8 301C1800.3 301 1671.7 301 1543 301C1414.3 301 1285.7 301 1157 301C1028.3 301 899.7 301 771.2 301C642.7 301 514.3 301 385.8 301C257.3 301 128.7 301 64.3 301L0 301Z" fill="#6d5b87"></path></svg>