<svg id="visual" viewBox="0 0 2700 300" width="2700" height="300" xmlns="http://www.w3.org/2000/svg" xmlns:xlink="http://www.w3.org/1999/xlink" version="1.1"><rect x="0" y="0" width="2700" height="300" fill="#44364B"></rect><path d="M0 224L64.3 221.2C128.7 218.3 257.3 212.7 385.8 211.8C514.3 211 642.7 215 771.2 216.7C899.7 218.3 1028.3 217.7 1157 215.3C1285.7 213 1414.3 209 1543 207C1671.7 205 1800.3 205 1928.8 201.5C2057.3 198 2185.7 191 2314.2 187.7C2442.7 184.3 2571.3 184.7 2635.7 184.8L2700 185L2700 301L2635.7 301C2571.3 301 2442.7 301 2314.2 301C2185.7 301 2057.3 301 1928.8 301C1800.3 301 1671.7 301 1543 301C1414.3 301 1285.7 301 1157 301C1028.3 301 899.7 301 771.2 301C642.7 301 514.3 301 385.8 301C257.3 301 128.7 301 64.3 301L0 301Z" fill="#44364b"></path><path d="M0 222L64.3 218.8C128.7 215.7 257.3 209.3 385.8 209.7C514.3 210 642.7 217 771.2 218.7C899.7 220.3 1028.3 216.7 1157 217.5C1285.7 218.3 1414.3 223.7 1543 224.2C1671.7 224.7 1800.3 220.3 1928.8 221.2C2057.3 222 2185.7 228 2314.2 228.5C2442.7 229 2571.3 224 2635.7 221.5L2700 219L2700 301L2635.7 301C2571.3 301 2442.7 301 2314.2 301C2185.7 301 2057.3 301 1928.8 301C1800.3 301 1671.7 301 1543 301C1414.3 301 1285.7 301 1157 301C1028.3 301 899.7 301 771.2 301C642.7 301 514.3 301 385.8 301C257.3 301 128.7 301 64.3 301L0 301Z" fill="#6d4361"></path><path d="M0 237L64.3 236.7C128.7 236.3 257.3 235.7 385.8 234.3C514.3 233 642.7 231 771.2 229.7C899.7 228.3 1028.3 227.7 1157 229.2C1285.7 230.7 1414.3 234.3 1543 234.8C1671.7 235.3 1800.3 232.7 1928.8 230.2C2057.3 227.7 2185.7 225.3 2314.2 225C2442.7 224.7 2571.3 226.3 2635.7 227.2L2700 228L2700 301L2635.7 301C2571.3 301 2442.7 301 2314.2 301C2185.7 301 2057.3 301 1928.8 301C1800.3 301 1671.7 301 1543 301C1414.3 301 1285.7 301 1157 301C1028.3 301 899.7 301 771.2 301C642.7 301 514.3 301 385.8 301C257.3 301 128.7 301 64.3 301L0 301Z" fill="#9c4e6c"></path><path d="M0 264L64.3 262.5C128.7 261 257.3 258 385.8 254.7C514.3 251.3 642.7 247.7 771.2 246.3C899.7 245 1028.3 246 1157 248.5C1285.7 251 1414.3 255 1543 257.7C1671.7 260.3 1800.3 261.7 1928.8 259.5C2057.3 257.3 2185.7 251.7 2314.2 250.3C2442.7 249 2571.3 252 2635.7 253.5L2700 255L2700 301L2635.7 301C2571.3 301 2442.7 301 2314.2 301C2185.7 301 2057.3 301 1928.8 301C1800.3 301 1671.7 301 1543 301C1414.3 301 1285.7 301 1157 301C1028.3 301 899.7 301 771.2 301C642.7 301 514.3 301 385.8 301C257.3 301 128.7 301 64.3 301L0 301Z" fill="#c95d69"></path><path d="M0 273L64.3 275C128.7 277 257.3 281 385.8 280C514.3 279 642.7 273 771.2 270.7C899.7 268.3 1028.3 269.7 1157 271.2C1285.7 272.7 1414.3 274.3 1543 274.5C1671.7 274.7 1800.3 273.3 1928.8 274.2C2057.3 275 2185.7 278 2314.2 279C2442.7 280 2571.3 279 2635.7 278.5L2700 278L2700 301L2635.7 301C2571.3 301 2442.7 301 2314.2 301C2185.7 301 2057.3 301 1928.8 301C1800.3 301 1671.7 301 1543 301C1414.3 301 1285.7 301 1157 301C1028.3 301 899.7 301 771.2 301C642.7 301 514.3 301 385.8 301C257.3 301 128.7 301 64.3 301L0 301Z" fill="#ec745c"></path></svg>